<?xml version="1.0" encoding="utf-8"?>
<!-- Generator: Adobe Illustrator 28.2.0, SVG Export Plug-In . SVG Version: 6.00 Build 0)  -->
<!DOCTYPE svg PUBLIC "-//W3C//DTD SVG 1.1//EN" "http://www.w3.org/Graphics/SVG/1.1/DTD/svg11.dtd">
<svg version="1.1" id="Associated" xmlns="http://www.w3.org/2000/svg" xmlns:xlink="http://www.w3.org/1999/xlink" x="0px" y="0px"
	 viewBox="0 0 480 480" style="enable-background:new 0 0 480 480;" xml:space="preserve">
<path d="M71.75,316.2300415c0.0072403-2.3599243-0.0338211-6.6199951,0.0800323-8.9200134
	c0.1480026-2.6792603,0.5925598-5.4884338,2.1499481-7.7400208c1.9128189-2.7363892,5.1546021-4.130127,8.3100128-4.8699646
	c2.4215698-0.5700684,4.960434-0.8211365,7.4399872-0.980011c49.8122101-0.6018066,185.0752869-0.0281982,236.6000366-0.2200623
	l-0.0000305-40L430.25,313.499939l-103.9199524,60.0000305l-0.0000305-40
	c-52.1004028-0.1745605-185.9582367,0.3474731-236.1000061-0.1994934c-2.3183365-0.1317749-4.6732864-0.3280334-6.9500504-0.800415
	c-3.3098679-0.6420288-6.7628403-1.8986511-8.9400024-4.6000366c-0.2745438-0.3561096-0.7680817-1.1264648-0.9899902-1.5199585
	C71.7630005,323.2682495,71.7962341,319.6402893,71.75,316.2300415z"/>
<path d="M408.25,164.2699585c-0.0072327,2.3599243,0.0338135,6.6199951-0.0800171,8.9200134
	c-0.1480103,2.6792603-0.5925598,5.4884338-2.1499634,7.7400208c-1.9128113,2.7363892-5.1546021,4.1301422-8.3100281,4.8699646
	c-2.4215393,0.5700684-4.9604187,0.8211365-7.4399719,0.980011c-49.8122253,0.6018066-185.0753021,0.0281982-236.6000366,0.2200623
	l0.0000305,40L49.75,167.000061l103.9199524-60.0000305l0.0000305,40
	c52.1004181,0.1745605,185.9582214-0.3474731,236.1000061,0.1995087c2.3183289,0.1317596,4.6732788,0.3280029,6.9500427,0.8003998
	c3.3098755,0.6420288,6.7628479,1.8986511,8.9400024,4.6000366c0.2745361,0.3561249,0.7680664,1.1264496,0.9899902,1.5199585
	C408.2369995,157.2317505,408.2037659,160.8597107,408.25,164.2699585z"/>
</svg>
