<?xml version="1.0" encoding="utf-8"?>
<!-- Generator: Adobe Illustrator 28.2.0, SVG Export Plug-In . SVG Version: 6.00 Build 0)  -->
<!DOCTYPE svg PUBLIC "-//W3C//DTD SVG 1.1//EN" "http://www.w3.org/Graphics/SVG/1.1/DTD/svg11.dtd" >
<svg version="1.1" id="Associated" xmlns="http://www.w3.org/2000/svg" xmlns:xlink="http://www.w3.org/1999/xlink" x="0px" y="0px"
	 viewBox="0 0 480 480" style="enable-background:new 0 0 480 480;" xml:space="preserve">
<path d="M261.0792,240.5c-12.9535,6.8219-28.086,7.5198-42.4307,8.2058c-17.2587,0.4765-34.566,0.2542-51.8293,0.2742
	c-21.9819-0.5815-60.6724,1.6613-72.0996-21.0486c-5.7657-12.3175-4.1081-26.4525-4.4272-39.6662
	c0.1326-14.8088-1.1107-32.7239,11.516-43.1156c14.1274-11.11,34.8226-11.2258,52.0537-11.9667
	c14.86-0.3001,29.7685-0.1529,44.6305-0.1737c20.6726,0.4639,53.1112-1.2963,69.1049,13.1371
	c10.0331,9.1247,10.3373,23.7304,10.388,36.3537h40.001c1.3445-41.6306-16.5041-73.2157-58.2537-84.1413
	c-18.9309-4.9811-38.7106-5.1803-58.1662-5.3377c-15.6703-0.0026-31.3846-0.1275-47.0532,0.1361
	c-25.4172,0.5511-52.5976,2.7479-73.9549,17.9132c-33.3085,24.0621-30.6002,59.1469-30.1363,95.7991
	c-0.0245,35.4644,17.953,64.3177,52.52,75.1244c16.1178,5.2382,33.23,6.4036,50.0724,6.8202
	c17.6679,0.3066,35.3784,0.1879,53.0483,0.1379c41.2821,0.1695,87.9569-5.0169,105.6704-48.4518H261.0792z"/>
<path d="M429.7075,287.9876c0.0147-13.5185,0.1256-27.3239-3.5581-40.4461c-11.7762-42.2993-51.4112-55.065-91.2172-56.0811
	c-17.3602-0.7032-34.7785-0.3948-52.1486-0.4543c-44.2079-0.2858-95.9418,1.7049-114.9027,49.4938c0,0,49.3501,0,49.3501,0
	c0.2224-0.3174,1.0665-0.5359,1.3138-0.8003c2.4435-1.3548,5.202-2.532,7.8389-3.4492c4.9862-1.6624,10.2694-2.7189,15.4673-3.4492
	c18.3537-2.2908,36.9375-1.682,55.3922-1.8015c22.4889,0.4568,56.7925-2.0442,76.304,8.9231
	c16.5023,9.1052,16.2388,28.073,16.1595,44.6171c-0.3076,12.8342,1.1898,26.2897-3.2018,38.5992
	c-7.8838,20.2906-33.0192,22.2047-51.8293,23.3875c-14.852,0.6662-29.7686,0.418-44.6309,0.473
	c-21.8005-0.4396-54.843,1.8514-73.424-9.8721c-13.3739-8.188-14.6938-24.404-14.5992-38.6277h-40.002
	c-1.2069,41.2004,17.123,72.4371,58.2521,83.166c18.9045,4.9376,38.6311,5.1825,58.0535,5.314
	c16.6912-0.0044,33.4251,0.1571,50.1135-0.1999c40.5716-0.4244,82.9819-10.3152,96.8766-53.5045
	C430.0309,318.6912,429.7159,303.1418,429.7075,287.9876z"/>
</svg>
