<?xml version="1.0" encoding="utf-8"?>
<!-- Generator: Adobe Illustrator 28.2.0, SVG Export Plug-In . SVG Version: 6.00 Build 0)  -->
<svg version="1.1" id="Custom" xmlns="http://www.w3.org/2000/svg" xmlns:xlink="http://www.w3.org/1999/xlink" x="0px" y="0px"
	 viewBox="0 0 480 480" style="enable-background:new 0 0 480 480;" xml:space="preserve">
<path d="M142.4,97.5c1.7,0,3.5,0,5.2,0c4.1,0,8.2,0.1,12.3,0.5c3.8,0.4,7.6,1.2,11,3c7.8,4.2,9.7,12.4,10.3,20.6
	c0.4,5.4,0.3,10.8,0.3,16.2c0,5.1,0.1,10.3-0.3,15.4c-0.5,7-1.9,14.7-7.8,19.2c-4,3.1-9.2,4.2-14.1,4.7c-3.9,0.4-7.8,0.4-11.7,0.4
	c-1.9,0-3.8,0-5.7,0c-1.8,0-3.6,0-5.4,0c-3.7,0-7.4,0-11-0.3c-8.8-0.6-17.2-2.8-21.1-11.5c-1.6-3.5-2.2-7.3-2.5-11
	c-0.4-4.4-0.4-8.8-0.4-13.2c0-4.9,0-9.8,0.1-14.7c0.3-10.8,1.3-22.5,12.9-26.8c3.5-1.3,7.3-1.9,11-2.1c3.9-0.3,7.8-0.3,11.7-0.3
	C138.9,97.5,140.6,97.5,142.4,97.5 M142.4,57.5l-3.3,0l-1.9,0h0l0,0c-4.3,0-9.1,0-14.3,0.4l0,0l0,0c-5.4,0.4-13.6,1.3-22.3,4.6
	C84.2,68.6,72.1,81,66.2,97.3c-3.7,10.2-4.4,20.1-4.6,28.5l0,0.1l0,0.1c-0.1,4-0.1,7.8-0.1,11.5c0,1.3,0,2.6,0,3.9l0,0.1l0,0.1
	l0,0.7c0,4.7,0,10.1,0.5,15.9l0,0l0,0c0.8,9,2.7,16.8,5.9,23.9c5.8,12.8,15.6,22.7,28.4,28.7c7.7,3.5,16.3,5.6,26.3,6.3
	c5.1,0.4,9.9,0.4,13.7,0.4l0,0l0,0c1.8,0,3.6,0,5.4,0c1.9,0,3.9,0,5.8,0l0,0l0,0c4.7,0,9.8-0.1,15.3-0.6l0,0l0,0
	c13.8-1.3,25.1-5.5,34.5-12.7h0c14.2-10.8,22.1-27.1,23.5-48.3c0.4-5.5,0.4-10.6,0.4-15.2c0-0.9,0-1.9,0-2.8l0-0.1l0-0.1
	c0-1,0-2.1,0-3.1c0-4.7,0-9.9-0.4-15.6c-2.1-31.3-18.3-46.3-31.4-53.3c-7.5-4-15.8-6.4-25.5-7.5l-0.1,0l-0.1,0
	c-5.8-0.6-11-0.7-16.2-0.7l0,0l0,0C146,57.5,144.2,57.5,142.4,57.5L142.4,57.5z"/>
<path d="M347.4,173.5c1.7,0,3.5,0,5.2,0c4.1,0,8.2,0.1,12.3,0.5c3.8,0.4,7.6,1.2,11,3c7.8,4.2,9.7,12.4,10.3,20.6
	c0.4,5.4,0.3,10.8,0.3,16.2c0,5.1,0.1,10.3-0.3,15.4c-0.5,7-1.9,14.7-7.8,19.2c-4,3.1-9.2,4.2-14.1,4.7c-3.9,0.4-7.8,0.4-11.7,0.4
	c-1.9,0-3.8,0-5.7,0c-1.8,0-3.6,0-5.4,0c-3.7,0-7.4,0-11-0.3c-8.8-0.6-17.2-2.8-21.1-11.5c-1.6-3.5-2.2-7.3-2.5-11
	c-0.4-4.4-0.4-8.8-0.4-13.2c0-4.9,0-9.8,0.1-14.7c0.3-10.8,1.3-22.5,12.9-26.8c3.5-1.3,7.3-1.9,11-2.1c3.9-0.3,7.8-0.3,11.7-0.3
	C343.9,173.5,345.6,173.5,347.4,173.5 M347.4,133.5l-3.3,0l-1.9,0h0l0,0c-4.3,0-9.1,0-14.3,0.4l0,0l0,0c-5.4,0.4-13.6,1.3-22.4,4.7
	c-16.1,6.1-28.2,18.4-34.1,34.7c-3.7,10.2-4.4,20.1-4.6,28.5l0,0.1l0,0.1c-0.1,4-0.1,7.8-0.1,11.5c0,1.3,0,2.6,0,3.8l0,0.1l0,0.1
	l0,0.7c0,4.7,0,10.1,0.5,15.9l0,0l0,0c0.8,9,2.7,16.8,5.9,23.9c5.8,12.8,15.6,22.7,28.4,28.7c7.7,3.5,16.3,5.6,26.3,6.3
	c5.1,0.4,9.9,0.4,13.7,0.4l0,0l0,0c1.8,0,3.6,0,5.4,0c1.9,0,3.9,0,5.8,0l0,0l0,0c4.7,0,9.8-0.1,15.3-0.6l0,0l0,0
	c13.8-1.4,25.1-5.5,34.5-12.7c14.2-10.8,22-27.1,23.5-48.3c0.4-5.5,0.4-10.6,0.4-15.2c0-0.9,0-1.9,0-2.8l0-0.1l0-0.1
	c0-1,0-2.1,0-3.1c0-4.7,0-9.9-0.4-15.6c-2.1-31.3-18.3-46.3-31.4-53.3c-7.5-4-15.8-6.4-25.5-7.5l-0.1,0l-0.1,0
	c-5.8-0.6-11-0.7-16.2-0.7l0,0l0,0C351,133.5,349.2,133.5,347.4,133.5L347.4,133.5z"/>
<path d="M175.4,310.5c1.7,0,3.5,0,5.2,0c4.1,0,8.2,0.1,12.3,0.5c3.8,0.4,7.6,1.2,11,3c7.8,4.2,9.7,12.4,10.3,20.6
	c0.4,5.4,0.3,10.8,0.3,16.2c0,5.1,0.1,10.3-0.3,15.4c-0.5,7-1.9,14.7-7.8,19.2c-4,3.1-9.2,4.2-14.1,4.7c-3.9,0.4-7.8,0.4-11.7,0.4
	c-1.9,0-3.8,0-5.7,0c-1.8,0-3.6,0-5.4,0c-3.7,0-7.4,0-11-0.3c-8.8-0.6-17.2-2.8-21.1-11.5c-1.6-3.5-2.2-7.3-2.5-11
	c-0.4-4.4-0.4-8.8-0.4-13.2c0-4.9,0-9.8,0.1-14.7c0.3-10.8,1.3-22.5,12.9-26.8c3.5-1.3,7.3-1.9,11-2.1c3.9-0.3,7.8-0.3,11.7-0.3
	C171.9,310.5,173.6,310.5,175.4,310.5 M175.4,270.5l-3.3,0l-1.9,0h0l0,0c-4.3,0-9.1,0-14.3,0.4l0,0l0,0c-5.4,0.4-13.6,1.3-22.4,4.6
	c-16.1,6.1-28.2,18.4-34.1,34.8c-3.7,10.2-4.4,20.1-4.6,28.5l0,0.1l0,0.1c-0.1,4-0.1,7.8-0.1,11.5c0,1.3,0,2.6,0,3.9l0,0.1l0,0.1
	l0,0.7c0,4.7,0,10.1,0.5,15.9l0,0l0,0c0.8,9,2.7,16.8,5.9,23.9c5.8,12.8,15.6,22.7,28.4,28.7c7.7,3.5,16.3,5.6,26.3,6.3
	c5.1,0.4,9.9,0.4,13.7,0.4l0,0l0,0c1.8,0,3.6,0,5.4,0c1.9,0,3.9,0,5.8,0l0,0l0,0c4.7,0,9.8-0.1,15.3-0.6l0,0l0,0
	c13.8-1.3,25.1-5.5,34.5-12.7h0c14.2-10.8,22.1-27.1,23.5-48.3c0.4-5.5,0.4-10.6,0.4-15.2c0-0.9,0-1.9,0-2.8l0-0.1l0-0.1
	c0-1,0-2.1,0-3.1c0-4.7,0-9.9-0.4-15.6c-2.1-31.3-18.3-46.3-31.4-53.3c-7.5-4-15.8-6.4-25.5-7.5l-0.1,0l-0.1,0
	c-5.8-0.6-11-0.7-16.2-0.7l0,0l0,0C179,270.5,177.2,270.5,175.4,270.5L175.4,270.5z"/>
</svg>
