<?xml version="1.0" encoding="utf-8"?>
<!-- Generator: Adobe Illustrator 28.2.0, SVG Export Plug-In . SVG Version: 6.00 Build 0)  -->
<svg version="1.1" id="NotFoundAssociated" xmlns="http://www.w3.org/2000/svg" xmlns:xlink="http://www.w3.org/1999/xlink" x="0px" y="0px"
	 viewBox="0 0 480 480" style="enable-background:new 0 0 480 480;" xml:space="preserve">
<path d="M419.5,149.1c-2.9-0.9-5.9-1.2-8.9-1.4c-3.3-0.2-6.6-0.2-9.9-0.2c-2.1,0-4.2,0-6.4,0h-17.6h-65.6h-8.1v-40l-103.9,60
	l103.9,60v-40h8.1h65.6h17.6c2.1,0,4.2,0,6.3,0c3.6,0,7.3,0,10.9-0.3c3-0.2,6-0.6,8.9-1.6c8.6-3,8.1-10.2,8.1-17.8
	C428.5,159.4,429.1,152,419.5,149.1z"/>
<path d="M287.8,312.5l-103.9-60v40h-8.1h-72.4H85.8c-2.1,0-4.2,0-6.4,0c-3.6,0-7.3,0-10.9,0.3c-3,0.2-6,0.6-8.9,1.6
	c-8.6,3-8.1,10.2-8.1,17.8c0,8.4-0.6,15.8,9,18.6c2.9,0.9,5.9,1.2,8.9,1.4c3.3,0.2,6.6,0.2,9.9,0.2c2.1,0,4.2,0,6.3,0h17.6h72.4h8.1
	v40L287.8,312.5z"/>
<path d="M87.3,179.7c-3,2.6-5.8,5.4-8.6,8.2c-2.8,2.8-5.6,5.6-8.4,8.4c-2.8,2.9-5.5,5.8-7.7,9.1c-6.4,9.7-2.1,14.4,5.1,21.4
	c2.7,2.6,5.3,5.6,8.6,7.4c5.8,3.2,11.9-0.6,16.4-4.3c4.4-3.7,8.4-7.8,12.4-11.8l0.2,0.2l21.4-21.4l1.8-1.8l0.8,0.8l10.7,10.7
	c2.6,3,5.4,5.8,8.2,8.6c2.8,2.8,5.6,5.6,8.4,8.4c2.9,2.8,5.8,5.5,9.1,7.7c9.7,6.4,14.4,2.1,21.4-5.1c2.6-2.7,5.6-5.3,7.4-8.6
	c3.2-5.8-0.6-11.9-4.3-16.4c-3.5-4.2-7.5-8.1-11.4-12l0.2-0.2l-21.4-21.4l-0.8-0.8l0.9-0.9l21.8-21.8l-0.2-0.2
	c0.9-0.9,1.8-1.8,2.6-2.6c2.8-2.8,5.6-5.6,8.2-8.7c3.2-3.9,6.8-8.6,6-14c-0.4-2.5-1.9-4.7-3.5-6.6c-1.6-1.8-3.3-3.5-5-5.1
	c-3.4-3.3-6.8-7.5-11.8-8.2c-5.4-0.5-10.1,3.1-14,6.4c-3.3,2.8-6.3,5.9-9.3,8.9c-3.6,3.6-7.3,7.2-10.8,11c-0.4,0.5-0.9,1-1.3,1.5
	l-11.1,11.1l-0.9,0.9l-0.9-0.9l-21.8-21.8l-0.2,0.2c-1-1-2-2-3-3c-2.8-2.8-5.6-5.6-8.7-8.2c-3.9-3.2-8.6-6.8-14-6
	c-2.5,0.4-4.7,1.9-6.6,3.5c-1.8,1.6-3.5,3.3-5.1,5c-3.3,3.4-7.5,6.8-8.2,11.8c-0.5,5.4,3.1,10.1,6.4,14c2.8,3.3,5.9,6.3,8.9,9.3
	c3.6,3.6,7.2,7.3,11,10.8c0.5,0.4,1,0.9,1.5,1.3l11.5,11.5l0.9,0.9l-1.8,1.8L87.3,179.7z"/>
<path d="M409.7,283.7c2.8-2.9,5.5-5.8,7.7-9.1c6.4-9.7,2.1-14.4-5.1-21.4c-2.7-2.6-5.3-5.6-8.6-7.4c-5.8-3.2-11.9,0.6-16.4,4.3
	c-5.2,4.4-9.9,9.3-14.7,14.1c-2.7,2.7-5.3,5.3-7.8,8.2L354,283.2l-1.8,1.8l-0.8-0.8L330,262.7l-0.2,0.2c-2.2-2.2-4.3-4.3-6.5-6.5
	c-2.9-2.8-5.8-5.5-9.1-7.7c-9.7-6.4-14.4-2.1-21.4,5.1c-2.6,2.7-5.6,5.3-7.4,8.6c-3.2,5.8,0.6,11.9,4.3,16.4
	c4.4,5.2,9.3,9.9,14.1,14.7c2.7,2.7,5.3,5.3,8.2,7.8l11.2,11.2l0.8,0.8l-0.9,0.9l-18.7,18.7c-0.8,0.8-1.6,1.6-2.3,2.3l-0.8,0.8l0,0
	c-0.9,0.9-1.9,1.9-2.8,2.8c-2.8,2.8-5.6,5.6-8.2,8.7c-3.2,3.9-6.8,8.6-6,14c0.4,2.5,1.9,4.7,3.5,6.6c1.6,1.8,3.3,3.5,5,5.1
	c3.4,3.3,6.8,7.5,11.8,8.2c5.4,0.5,10.1-3.1,14-6.4c3.3-2.8,6.3-5.9,9.3-8.9c0.6-0.6,1.2-1.2,1.8-1.8l0,0l21.8-21.8l0.9-0.9l0.9,0.9
	l11.2,11.2c0.7,0.8,1.3,1.5,1.9,2.2c3.6,3.9,7.4,7.6,11.2,11.3c2.8,2.8,5.6,5.6,8.7,8.2c3.9,3.2,8.6,6.8,14,6
	c2.5-0.4,4.7-1.9,6.6-3.5c1.8-1.6,3.5-3.3,5.1-5c3.3-3.4,7.5-6.8,8.2-11.8c0.5-5.4-3.1-10.1-6.4-14c-2.8-3.3-5.9-6.3-8.9-9.3
	c-0.5-0.5-1.1-1.1-1.6-1.6l0.2-0.2l-21.8-21.8l-0.9-0.9l1.8-1.8l21.4-21.4l-0.2-0.2C405.6,287.8,407.7,285.8,409.7,283.7z"/>
</svg>
