<?xml version="1.0" encoding="utf-8"?>
<!-- Generator: Adobe Illustrator 28.2.0, SVG Export Plug-In . SVG Version: 6.00 Build 0)  -->
<svg version="1.1" id="Verification" xmlns="http://www.w3.org/2000/svg" xmlns:xlink="http://www.w3.org/1999/xlink" x="0px"
	 y="0px" viewBox="0 0 480 480" style="enable-background:new 0 0 480 480;" xml:space="preserve">
<polygon points="240.1,49.7 240.1,49.7 240.1,49.7 "/>
<path d="M240.1,49.7c3.5,0,6.9,0.1,10.4,0.3c104.8,5.7,185.1,95.2,179.4,200c-2.5,46.5-21.6,88.2-51.1,119.7c1-0.3,2.1-0.4,3.2-0.4
	c4.9,0.1,9.2,3,12.8,6c3,2.5,5.8,5.4,8.4,8.3c4.2,4.6,8.3,9.2,12.5,13.8c3.2,3.6,6.3,7.1,9.1,11c1.9,2.5,3.6,5.3,4.8,8.2
	c1.2,2.9,1.7,6.1,0.9,9.2l-0.4,1.2c-1,2.5-2.7,4.7-4.6,6.6c-2,2-4.2,3.9-6.3,5.8c-1.8,1.6-3.7,3.3-5.6,4.9c-1.8,1.4-3.7,2.7-5.8,3.6
	c-1.6,0.7-3.4,1-5.2,0.9c-1.7-0.1-3.5-0.5-5.1-1.2c-3.7-1.6-6.9-4.2-9.8-6.9c-3.5-3.2-6.7-6.8-9.9-10.3c-3.5-3.8-6.9-7.7-10.3-11.6
	c-2.9-3.3-5.7-6.6-8.2-10.1c-3.1-4.4-6.1-9.8-5.2-15.4l0.2-1c0.1-0.3,0.2-0.7,0.3-1c-32,24.2-71.8,38.5-114.5,38.5
	c-3.5,0-6.9-0.1-10.4-0.3c-104.8-5.7-185.1-95.2-179.4-200C56,128.2,139.9,49.7,240.1,49.7C240.1,49.7,240.1,49.7,240.1,49.7
	 M240.1,89.7c-79.6,0-145.3,62.3-149.6,141.9c-2.2,40,11.4,78.5,38.1,108.3c26.8,29.8,63.5,47.4,103.5,49.6c2.8,0.1,5.5,0.2,8.3,0.2
	c79.6,0,145.3-62.3,149.6-141.9c2.2-40-11.4-78.5-38.1-108.3c-26.8-29.8-63.5-47.4-103.5-49.6C245.6,89.8,242.9,89.7,240.1,89.7"/>
<path d="M165.5,156.9c5.9,13.9,12.8,23.9,30,26.8c9.1-10.6,21.3-18.5,34.4-19.5c13.1-1,23.5,5.3,24.6,19.6c2,26.2-49.4,50.6-38,99.2
	c12.9,7.7,35,7.3,44.1,0.6c-7.4-41.8,51.5-63.5,48.1-107.8c-3.4-44.4-35.5-60.8-75.4-57.8C204.8,120.2,181.5,135.5,165.5,156.9z"/>
<path d="M240.2,291.4c-19.8,0-33.9,15.4-33.9,35.2c0,19.8,14.1,35.5,33.9,35.5c19.5,0,33.9-15.7,33.9-35.5
	C274.1,306.7,259.7,291.4,240.2,291.4z"/>
</svg>
