<?xml version="1.0" encoding="utf-8"?>
<!-- Generator: Adobe Illustrator 28.2.0, SVG Export Plug-In . SVG Version: 6.00 Build 0)  -->
<svg version="1.1" id="Advertisement"
	 xmlns="http://www.w3.org/2000/svg" xmlns:xlink="http://www.w3.org/1999/xlink" x="0px" y="0px" viewBox="0 0 480 480"
	 style="enable-background:new 0 0 480 480;" xml:space="preserve">
<path  d="M309,147c0-29.1-14.1-40-40-40c-10.6,0-20.9,2.4-33.4,18c-1,1.2-7.1,7.9-21.8,14.8c-16,7.4-45.1,16.3-93.2,16.3
	c-4.2,0.1-9.4-0.1-13.5,0.1c-6.8,0.2-13.6,0.8-20.2,2.4c-11.3,2.7-22,8.5-29.9,17c-9.5,10.1-14.7,23.6-16.1,37.3
	c-1.1,9.3-0.7,20.2-0.8,29.6c0,10.2,0.5,20.6,3.5,30.4c8.3,27.6,31.6,41.8,59.6,42.9c3.6,19.1,13.7,73.4,17.2,91.8
	c0.5,2.3,1.1,4.6,2.3,6.7c3.6,6.6,11.3,4.9,17.5,3.8c3-0.6,6-1.1,9-1.8c4.1-0.9,8.8-2.6,10.3-7c0.8-2.3,0.7-4.8,0.4-7.2
	c-2.8-16.9-12.6-67.6-15.8-85.2c44.3,3.7,72.3,11.8,91.6,30.3c12.7,13.6,25.9,18,33.4,18c25.9,0,40.2-12.4,40-40v-65.4
	c5.9-2.7,14.5-4.6,27-4.6v-40c-12.5,0-21.1-2-27-4.6V147z M269,325c0,0-29-49-148.4-49c-4.2-0.1-9.4,0.1-13.5-0.1
	c-4.6-0.2-9.2-0.6-13.5-2.1c-14-4.8-13.4-20.1-13.6-32.3c0.1-6.5-0.2-15.7,0.3-22c0.6-8.8,3.2-17.1,12-20.7
	c4.6-1.9,9.8-2.3,14.7-2.5c117.9,1.8,154-37.3,161.9-49.1V325z"/>
<path  d="M440.5,232.4c-0.1-8.8,0-18.1-10.5-20.2c-2.8-0.6-5.6-0.6-8.4-0.5c-3.5,0.1-7,0.5-10.4,0.8
	c-6.8,0.7-13.7,1.2-20.4,2.5c-5.1,1.1-10.9,3-13.4,8.1c-1,2.1-1.4,4.5-1.5,6.9c-0.1,2.3-0.1,4.6-0.1,6.9c0,5.4-0.3,11.4,4,15.3
	c2.9,2.6,6.7,3.8,10.4,4.7c3.6,0.8,7.3,1.2,10.9,1.6c3.1,0.3,6.3,0.6,9.4,0.9c3.1,0.3,6.3,0.6,9.4,0.8c2.8,0.2,5.7,0.2,8.4-0.2
	c7.7-1,11-5.3,11.7-12.8c0.3-2.6,0.3-5.2,0.3-7.8C440.5,237.1,440.5,234.7,440.5,232.4z"/>
<path d="M347,115.9c0.6,4,2.8,7.5,4.5,11.1c1.8,3.4,3.4,7.1,6.2,9.7c1.5,1.3,3.4,2.3,5.3,2.7c1.9,0.4,3.8,0.4,5.7,0.2
	c3.5-0.4,7-1.4,10.4-2.6c3-1,5.9-2.2,8.9-3.4c3.1-1.2,6.2-2.4,9.3-3.7c2.9-1.2,5.8-2.4,8.6-3.9c2.3-1.2,4.6-2.7,6.5-4.7
	c4.8-5.2,2.9-11.3,0.3-17c-1.9-4-4-8-6-11.9c-3.5-6.7-7.7-13.9-16.4-12.1c-3.1,0.6-6,2-8.8,3.5c-3.2,1.8-6.3,3.8-9.3,5.7
	c-3.6,2.3-7.3,4.7-10.9,7.1c-3.6,2.5-7.3,5.1-10.2,8.4c-1.4,1.6-2.6,3.4-3.4,5.3C346.9,112.3,346.7,114.1,347,115.9z"/>
<path d="M415.1,356c-0.9-5.1-5.5-8.2-9.7-10.4c-3.2-1.7-6.6-3.1-10-4.4c-3.1-1.2-6.2-2.5-9.3-3.7
	c-3.7-1.5-7.5-2.9-11.3-4c-5.2-1.4-11.4-2.5-16.1,0.9c-1.8,1.4-3.2,3.3-4.3,5.2c-1.1,1.9-2.1,3.9-3.1,5.8c-1.6,3.2-3.5,6.4-4.2,9.9
	c-0.4,2-0.2,4.2,0.5,6.1c0.9,2.5,2.6,4.6,4.5,6.5c2.3,2.3,4.9,4.2,7.5,6.1c3.7,2.6,7.5,5,11.3,7.4c3.1,2,6.1,4,9.3,5.8
	c2.4,1.4,5,2.7,7.6,3.6c2.2,0.7,4.6,1.2,6.9,0.7c3.9-0.6,6.8-3.7,8.9-6.9c1.6-2.4,2.9-5,4.2-7.5c1.5-3,3.1-6.1,4.6-9.1
	C414,364.4,415.8,360.2,415.1,356z"/>
</svg>
