<?xml version="1.0" encoding="utf-8"?>
<!-- Generator: Adobe Illustrator 28.2.0, SVG Export Plug-In . SVG Version: 6.00 Build 0)  -->
<!DOCTYPE svg PUBLIC "-//W3C//DTD SVG 1.1//EN" "http://www.w3.org/Graphics/SVG/1.1/DTD/svg11.dtd">
<svg version="1.1" id="Description" xmlns="http://www.w3.org/2000/svg" xmlns:xlink="http://www.w3.org/1999/xlink" x="0px" y="0px"
	 viewBox="0 0 480 480" style="enable-background:new 0 0 480 480;" xml:space="preserve">
<path d="M423,137c0-44.1121216-35.8878784-80-80-80c-84.1915588,0.7583809-110.0998383,113.3004456-36.2925415,151.2579346
	c-5.2602539,12.726181-9.2548828,28.8413086-13.1195679,44.4295654
	c-2.7939453,11.2666016-5.6816406,22.9169922-8.8095703,32.1679688c-1.4560547,4.3095703-2.5714111,9.6259766-3.78125,9.6259766
	s-4.8193359-8.1904297-8.109375-17.1523438c-5.125-13.9599609-9.5595703-31.8603516-13.8486328-49.1708984
	c-8.7045898-29.4732208-16.0753021-90.0476227-56.038208-91.158844
	c-32.2970123-0.4763184-42.3325043,46.5488434-49.4030304,75.150177
	c-3.8127289,14.4946747-8.1200104,34.2762299-14.4395599,44.8508911
	c-7.9295044,0.0062866-15.9151611,0.0902405-23.7544556,1.4060059
	c-13.7724152,2.2255859-26.5065613,8.2861328-35.9597015,18.6941223c-3.8976212,4.2600403-7.1308441,9.1513062-9.5832062,14.3764343
	c-2.5186157,5.3421631-4.2374496,11.0603638-5.2716675,16.8699951c-1.2756424,7.0453186-1.5398521,14.2402954-1.5770836,21.3861084
	c-0.019207,4.5404968-0.0158348,9.1194153-0.0047112,13.6599121c0.0201416,5.1043091,0.1254272,10.2408142,0.6298981,15.3231812
	c0.7569885,7.8907471,2.5627136,15.7391052,5.8377151,22.9779053c1.7797394,3.9467773,3.9798355,7.6095581,6.5390854,11.098114
	c0.6442184,0.7648621,1.4680481,1.8629456,2.1063309,2.6315308c0.6539993,0.6820068,1.4842377,1.6783447,2.1313553,2.3648071
	c2.2123337,2.249054,4.6054153,4.4624939,7.1582794,6.3224182c3.5634308,2.6588745,7.4678726,4.9191284,11.5426483,6.6968384
	c8.458931,3.7344055,17.6907425,5.4031982,26.885025,5.9051819c7.1495132,0.3993835,14.3291855,0.2623901,21.4864426,0.2860107
	c8.5655212-0.0042725,17.2058411-0.1551208,25.6332397-1.8360901c20.277359-3.9068909,36.4927521-16.2268677,44.4356384-35.4599304
	c1.4786072-3.6889648,2.674057-7.5184631,3.4970245-11.4074402c0.9887238-4.5610962,1.5328522-9.2298889,1.8126221-13.8855591
	c0.2511139-4.1849365,0.2852325-8.4104309,0.294693-12.6019897c-0.0007019-4.59729,0.0194855-9.2321167-0.0249023-13.8292236
	c-0.0744629-9.7965088-0.8462067-19.7219238-3.9051208-29.0841064
	c-5.914566-18.3643494-19.4836578-31.9772644-37.8461609-37.9238892
	c7.8092194-21.0115814,12.8518677-49.7680664,19.9764404-70.9776154c0.9317017-2.734848,1.9286652-6.8110199,2.5596313-6.8110199
	s2.9365234,6.6577148,4.7319336,11.8979492c10.2387238,30.2937927,17.5126495,74.7228699,29.9034271,103.8105164
	c17.4406586,45.9709473,62.2472076,55.171814,80.9047394,7.8404541c5.2562866-12.721283,9.2514038-28.8345642,13.1146851-44.4185486
	c3.8088379-14.6082916,8.1817322-34.822937,14.5405884-45.4127808C389.2356567,214.8319702,423,179.7865601,423,137z
	 M181.536438,313.0449829c0.9487457,3.8279724,1.2322693,7.8303528,1.3649902,11.7605591
	c0.1174927,3.9046326,0.0940399,7.8545532,0.0985718,11.760437c-0.0097046,4.5599365,0.0381012,9.1585388-0.1381073,13.7160034
	c-0.4079895,9.8537903-2.0735626,19.8905029-12.2717743,24.0602112c-3.2990265,1.3651428-6.8917084,1.9567566-10.4311218,2.2704773
	c-3.8664246,0.3357544-7.7797699,0.3675842-11.6582031,0.3835449c-3.4657288,0.006958-6.9653015,0.0057983-10.4310303,0.0015259
	c-3.6724854-0.0114746-7.3796692-0.0318604-11.0446777-0.2906494c-3.5324707-0.2519226-7.113205-0.7453918-10.4682007-1.9194336
	c-8.2780151-2.9126282-11.6557541-9.3336487-12.8324203-17.6408386c-0.7403564-5.344696-0.7009277-10.7861328-0.723259-16.1706238
	c0.013176-5.3798523-0.0533142-10.7922974,0.0971069-16.1706543c0.3371735-10.1248169,1.708252-20.7862244,12.2686005-25.1338806
	c4.6471558-1.9124756,9.7524185-2.3385315,14.7262268-2.5455627c5.5129547-0.1898804,11.0517883-0.1094055,16.5668945-0.125824
	c3.4661865,0.0062866,6.9681702,0.0099182,10.4310913,0.1774597c3.0772858,0.1510315,6.1941071,0.4451599,9.2037964,1.1256104
	C174.5272827,300.1626892,179.4888611,304.8049011,181.536438,313.0449829z M343,177c-22.0914307,0-40-17.9085693-40-40
	c1.960907-53.0020828,78.0470886-52.9877472,80.000061,0.0005035C383,159.0914307,365.0914307,177,343,177z"/>
</svg>
