<?xml version="1.0" encoding="utf-8"?>
<!-- Generator: Adobe Illustrator 28.2.0, SVG Export Plug-In . SVG Version: 6.00 Build 0)  -->
<svg version="1.1" id="Example" xmlns="http://www.w3.org/2000/svg" xmlns:xlink="http://www.w3.org/1999/xlink" x="0px" y="0px"
	 viewBox="0 0 480 480" style="enable-background:new 0 0 480 480;" xml:space="preserve">
<path d="M438,310.3c0-4.9,0-9.6-0.3-15.2c-1.3-26.6-17-48.4-42.1-56.6c-0.2-0.1-0.5-0.2-0.7-0.2c-14.1-4.9-32.1-5.3-47.2-5.4
	c-13.7,0.1-26.6-0.2-41,0.6c21.5-10.5,32.9-33.4,33-55.5c0.1-5.1,0.1-9.3,0.1-14c1.3-32.3-10.7-58.5-42.4-69.5
	c-0.2-0.1-0.5-0.2-0.7-0.2c-14.1-4.9-32.1-5.3-47.2-5.4c-16.8,0.2-31.6-0.6-49.5,1.5c-0.2,0-0.4,0.1-0.6,0.1
	c-38.5,4.4-61,32.7-59.7,67.7c0,4,0,7.8,0,11.6c-0.2,9.1,0.8,22.6,4.6,31.9c0.9,2.1,1.8,4.5,2.9,6.6l0.1,0.1
	c5.6,10.9,14.5,19.5,25.6,25.2c-11.7-0.8-23-0.6-34.6-0.6c-11.5,0-23.3-0.1-36.3,1.5c-0.2,0-0.4,0.1-0.6,0.1
	C56.6,240.7,39.7,271.3,42,311c0,6.6-0.2,12.4,1,20.5c1,7.5,3.2,14.2,6.5,20.8l0.1,0.1c10.4,20.5,31.5,31,54.5,33.5c0,0,0,0,0.1,0
	c13.8,1.5,22.7,1.1,35.8,1.2c12.3,0,22.9,0.2,36.1-0.8c8.2-0.8,19-2.3,30.2-7.4c0.1-0.1,0.3-0.1,0.4-0.2c17.3-8,29.4-23.2,33.3-41.5
	c1.2,5.4,2.9,10.3,5.4,15.2l0.1,0.1c10.4,20.5,31.5,31,54.5,33.5c0,0,0,0,0.1,0c13.8,1.5,22.7,1.1,35.8,1.2
	c12.3,0,22.9,0.2,36.1-0.8c8.2-0.8,19-2.3,30.2-7.4c0.1-0.1,0.3-0.1,0.4-0.2c28.7-13.8,36.5-39.3,35.3-68.1
	C438,310.5,438,310.4,438,310.3z M180,158.7c0.1-7.1,0.5-15,5.6-20.4c10.7-11.2,36.2-8.9,50.9-9.4c11.6,0.1,23.1-0.3,34.7,0.8
	c9.4,1,21.1,3.2,25.8,12.5c3.7,7.4,2.9,16.2,3,24.3c0,12.3,0.9,26.1-12.3,31.9c-5.4,2.5-11.4,3.4-17.3,4
	c-10.7,0.8-21.6,0.7-32.4,0.7c-15.2-0.5-44.9,2.5-54.1-11.8l-0.9-1.6l-0.1-0.1c-2.8-6.2-2.8-13.2-2.8-19.9
	C180,166.1,180,162.4,180,158.7z M201.9,320.4c-0.1,9.5-3,17.9-12.2,22c-12.1,5.2-25.6,4.3-38.5,4.7c-7.7,0-15.3,0-23,0
	c-13.2-0.5-34.1,0.5-42.3-11.8l-0.9-1.6l-0.1-0.1c-4.1-9.7-2.4-20.6-2.8-30.9c-0.5-18.7,7.2-26.2,25.4-28.6
	c10.3-1.3,20.8-1.2,31.1-1.2c11.6,0.1,23.1-0.3,34.7,0.8C206,276.7,202.2,293.9,201.9,320.4z M254.5,254.9c-8.5,9-12.6,19.1-14.5,28
	c-3.6-17.6-15.1-32.4-31-40.5c12.8,0.8,23.1,0.6,36,0.6c8.6,0,16.7,0,26.2-0.6C265.4,245.4,259.7,249.4,254.5,254.9z M397.9,320.4
	c-0.1,9.5-3,17.9-12.2,22c-12.1,5.2-25.6,4.3-38.5,4.7c-7.7,0-15.3,0-23,0c-13.2-0.5-34.1,0.5-42.3-11.8l-0.9-1.6l-0.1-0.1
	c-4.1-9.7-2.4-20.6-2.8-30.9c-0.5-18.7,7.2-26.2,25.4-28.6c10.3-1.3,20.8-1.2,31.1-1.2c11.6,0.1,23.1-0.3,34.7,0.8
	C402,276.7,398.2,293.9,397.9,320.4z"/>
</svg>
