<?xml version="1.0" encoding="utf-8"?>
<!-- Generator: Adobe Illustrator 28.2.0, SVG Export Plug-In . SVG Version: 6.00 Build 0)  -->
<!DOCTYPE svg PUBLIC "-//W3C//DTD SVG 1.1//EN" "http://www.w3.org/Graphics/SVG/1.1/DTD/svg11.dtd">
<svg version="1.1" id="NotFoundAssociated" xmlns="http://www.w3.org/2000/svg" xmlns:xlink="http://www.w3.org/1999/xlink" x="0px"
	 y="0px" viewBox="0 0 480 480" style="enable-background:new 0 0 480 480;" xml:space="preserve">
<path d="M191.3055,288.997l14.5781-40.0529c-13.02,0.1426-26.0547,0.0208-39.0643,0.0358
	c-21.9819-0.5815-60.6724,1.6613-72.0996-21.0486c-5.7657-12.3175-4.1081-26.4525-4.4272-39.6662
	c0.1326-14.8088-1.1107-32.7239,11.516-43.1156c14.1274-11.11,34.8226-11.2258,52.0537-11.9667
	c14.86-0.3,29.7685-0.1529,44.6305-0.1737c13.6941,0.3073,32.5479-0.3566,48.3676,3.3524l13.7426-37.7574
	c-0.2929-0.0793-0.5748-0.1682-0.8701-0.2454c-18.9309-4.9811-38.7106-5.1803-58.1662-5.3377
	c-15.6703-0.0026-31.3846-0.1275-47.0532,0.1361c-25.4172,0.5511-52.5976,2.7479-73.955,17.9132
	c-33.3085,24.0621-30.6002,59.1469-30.1363,95.7991c-0.0245,35.4644,17.953,64.3177,52.52,75.1244
	c16.1178,5.2382,33.23,6.4036,50.0724,6.8202C165.7665,289.0352,178.5405,289.0331,191.3055,288.997z"/>
<path d="M291.7894,182.5h26.1971c0.573-17.7428-2.3546-33.6511-9.1187-46.9228L291.7894,182.5z"/>
<path d="M311.7333,240.5001H270.679l-16.1207,44.2915C279.2107,279.3191,300.8956,267.0751,311.7333,240.5001z"/>
<path d="M167.8809,240.4999h41.076l16.4813-45.2819C200.5244,200.6861,178.7838,213.0201,167.8809,240.4999z"/>
<path d="M171.1324,344.4219l16.7143-45.9221h-25.8273C161.5115,315.8368,164.4783,331.399,171.1324,344.4219z"/>
<path d="M429.7075,287.9876c0.0147-13.5185,0.1256-27.3239-3.5581-40.4461c-11.7762-42.2993-51.4112-55.065-91.2172-56.0811
	c-15.3928-0.6235-30.8312-0.4528-46.2413-0.4473l-14.5665,40.0211c7.7114-0.0594,15.4263,0.0153,23.1189-0.0345
	c22.4889,0.4568,56.7925-2.0442,76.304,8.9231c16.5023,9.1052,16.2388,28.073,16.1595,44.6171
	c-0.3076,12.8342,1.1898,26.2897-3.2018,38.5992c-7.8838,20.2906-33.0192,22.2047-51.8293,23.3875
	c-14.852,0.6662-29.7686,0.418-44.6309,0.473c-16.2668-0.3281-38.7903,0.8612-56.8971-3.3828l-13.7584,37.8008
	c0.2969,0.0803,0.583,0.17,0.8823,0.2481c18.9045,4.9376,38.6311,5.1825,58.0535,5.314
	c16.6912-0.0044,33.4251,0.1571,50.1135-0.1999c40.5716-0.4244,82.9819-10.3152,96.8766-53.5045
	C430.0309,318.6912,429.7159,303.1418,429.7075,287.9876z"/>
<path d="M299.5894,134.7554c3.5648-10.4066,18.1811-48.9721,21.2513-59.0279c1.1201-3.9054,2.1536-7.9968,1.6464-12.0816
	c-0.6193-6.6529-7.2071-9.206-12.7342-11.0929c-4.1589-1.4133-8.3187-3.4456-12.7887-3.4799
	c-6.7501,0.1161-10.4303,6.7756-12.8904,12.2144c-28.5122,76.0103-95.224,261.3927-123.2341,337.8235
	c-2.1272,6.7991-5.857,15.7825-1.3748,22.2172c2.5921,3.346,6.8772,4.6407,10.6862,6.084c6.1556,2.214,14.065,6.15,19.6501,0.7308
	c2.9028-2.6786,4.7122-6.3,6.3191-9.8511c2.0009-4.5479,3.622-9.2654,5.3387-13.9247
	C211.1671,377.6938,287.9726,166.6723,299.5894,134.7554z"/>
</svg>
