<?xml version="1.0" encoding="utf-8"?>
<!-- Generator: Adobe Illustrator 28.2.0, SVG Export Plug-In . SVG Version: 6.00 Build 0)  -->
<!DOCTYPE svg PUBLIC "-//W3C//DTD SVG 1.1//EN" "http://www.w3.org/Graphics/SVG/1.1/DTD/svg11.dtd">
<svg version="1.1" id="Transfer" xmlns="http://www.w3.org/2000/svg" xmlns:xlink="http://www.w3.org/1999/xlink" x="0px" y="0px"
	 viewBox="0 0 480 480" style="enable-background:new 0 0 480 480;" xml:space="preserve">
<path d="M307.703125,210.7680664c-5.2568359,12.7216797-9.2519531,28.8359375-13.1152344,44.4194336
	c-2.7939453,11.2666016-5.6816406,22.9169922-8.8095703,32.1679688c-1.4560547,4.3095703-2.4012146,9.6259766-3.78125,9.6259766
	s-4.8193359-8.1904297-8.109375-17.1523438c-5.125-13.9599609-9.5595703-31.8603516-13.8486328-49.1708984
	c-5.0595703-20.4233398-9.8388672-39.7138672-16.1054688-55.1879883C240.3310547,166.5737305,229.3666992,139.5,204,139.5
	c-15.4829102,0-27.6870117,10.4492188-36.2739258,31.0576172c-5.2651367,12.6357422-9.2626953,28.6269531-13.1289062,44.0917969
	c-2.7895508,11.1586914-5.6743164,22.6977539-8.7949219,31.8574219c-2.7006836,7.9287109-4.7792969,11.7207031-5.918457,13.4169922
	C130.8129883,261.8222656,124,269.8652344,124,279.5c0,11.0458984,8.9541016,20,20,20
	c15.4829102,0,27.6870117-10.4492188,36.2739258-31.0576172c5.2651367-12.6357422,9.2626953-28.6269531,13.1289062-44.0917969
	c2.7895508-11.1586914,5.6743164-22.6977539,8.7949219-31.8574219c0.9316406-2.7348633,1.125412-6.8110352,2.5595703-6.8110352
	s2.9365234,6.6577148,4.7319336,11.8979492c4.1396484,12.0849609,7.8237305,26.9545898,11.7236328,42.6972656
	c5.3139648,21.4482422,10.8085938,43.6269531,18.1796875,61.1132812C250.3320312,327.3417969,265.3398438,340.5,284,340.5
	c15.5107422,0,27.7226562-10.5205078,36.296875-31.2685547c5.2568359-12.7216797,9.2519531-28.8349609,13.1152344-44.4189453
	c2.7939453-11.2666016,5.6816406-22.9169922,8.8095703-32.1679688c2.7128906-8.0258789,4.8027344-11.8637695,5.9492188-13.5800781
	C357.2148438,217.1464844,364,209.1157227,364,199.5c0-11.0458984-8.9541016-20-20-20
	C328.4892578,179.5,316.2773438,190.0200195,307.703125,210.7680664z"/>
<path d="M316.02771,139.394043c-3.113739,3.8918457-3.7638245,11.7770538,2.663147,12.1066742
	c11.5291138,0.221756,23.6854858,2.2862701,35.8973999,6.4450226c12.1564941,4.189209,24.3348999,10.4842529,35.9283447,18.8652954
	c5.4108276,3.890625,13.6165161,1.0736694,14.3508911-6.0869751c3.4873962-32.7914124-3.0340271-67.004631-17.7543945-98.0912781
	c-1.770752-3.9590149-5.4906616-6.5255432-9.0908203-7.4833679c-3.4375305-0.9328308-7.1682434-0.1731796-9.3172607,2.727829
	c0,0.0000153-14.477478,19.6552277-14.477478,19.6552277c-79.1870728-58.9397125-192.6675568-45.9846344-256.5351257,29.3168106
	c-61.5824394,70.5361404-60.0806656,181.4681702,3.4743118,250.2660217
	c53.3473969,60.4382324,146.0128326,79.678009,218.9783936,45.3891907
	c37.8486023-17.1275024,69.7069702-47.0552979,89.0152283-83.8523865l0,0
	c1.2908936-2.3168335,2.4628906-4.7159424,3.4884949-7.1622314c0.6293335-1.5122681,1.2333984-3.074646,1.6169128-4.6695557
	c0.5302124-2.5432739,0.5359497-5.3747253-0.8253479-7.6690674c-1.3790283-2.3643494-3.8229065-3.8414001-6.2314148-4.9919434
	c-2.0296021-0.9625549-4.144104-1.7628479-6.2357788-2.5777588c-2.4797058-0.9512939-4.9543152-1.9495544-7.4669189-2.8120728
	c-2.2660828-0.7622681-4.6174011-1.4432983-7.024353-1.4865723c-1.3302307-0.0246277-2.6968994,0.1884155-3.921875,0.7200317
	c-1.1009827,0.4781799-2.098175,1.2289429-2.9058838,2.1134033c-1.2145691,1.3700562-2.2452698,2.914978-3.1039429,4.5308228
	c-0.5636597,1.0387878-1.0750122,2.1323242-1.5999146,3.1903076c-0.3776855,0.6908875-0.7738953,1.4189453-1.1481934,2.1116943l0,0
	c-15.2223511,29.0522461-40.326416,52.5888977-70.1837158,66.1300354
	c-57.5653839,27.0633545-130.7073669,11.8822632-172.7891083-35.798584
	c-50.1210327-54.2974854-51.3218842-141.7980042-2.7136688-197.4607544
	c50.3101196-59.3608475,140.0072632-69.6018372,202.3895569-23.0810242"/>
</svg>
